<?xml version="1.0" standalone="no"?><!DOCTYPE svg PUBLIC "-//W3C//DTD SVG 1.1//EN" "http://www.w3.org/Graphics/SVG/1.1/DTD/svg11.dtd"><svg t="1597921295782" class="icon" viewBox="0 0 3328 1024" version="1.1" xmlns="http://www.w3.org/2000/svg" p-id="14239" xmlns:xlink="http://www.w3.org/1999/xlink" width="52" height="16"><defs><style type="text/css"></style></defs><path d="M3060.456727 608.581818v171.822546c0 59.648-48.756364 108.171636-108.706909 108.171636h-5.399273v-62.254545h5.399273a46.08 46.08 0 0 0 46.126546-45.917091V608.581818h-202.798546c-48.756364 0-88.389818-39.447273-88.389818-87.970909V309.061818c0-17.198545 14.010182-31.138909 31.278545-31.138909h488.215273c20.48 0 37.12-16.570182 37.12-36.957091h62.603637c0 54.690909-44.753455 99.234909-99.723637 99.234909h-456.913454v180.456728c0 14.149818 11.589818 25.693091 25.809454 25.69309h202.798546v-157.137454h62.603636v157.137454H3328v62.254546h-267.543273z m-704.512 86.062546v90.321454c0 51.083636-41.774545 92.625455-93.114182 92.625455h-4.95709v-62.254546h4.95709a30.487273 30.487273 0 0 0 30.510546-30.370909V744.494545c-71.261091 53.666909-177.454545 123.159273-249.297455 123.159273h-62.976v-62.254545h62.976c56.832 0 171.473455-77.265455 249.297455-139.962182v-82.432c-76.241455 67.072-182.458182 144.989091-264.564364 144.989091h-47.709091v-62.254546h47.709091c63.022545 0 169.053091-78.219636 252.904728-156.439272-11.217455-19.921455-28.462545-36.887273-42.216728-48.011637-39.330909 37.818182-141.265455 126.650182-230.795636 126.650182h-27.601455v-62.254545h27.601455c43.496727 0 99.793455-35.909818 143.383273-70.818909h-81.408V392.610909h426.123636v62.254546H2320.290909c19.316364 24.901818 35.677091 57.041455 35.677091 94.487272v64.209455l85.597091-70.283637a234.961455 234.961455 0 0 1 144.942545-53.131636l0.977455 62.254546a172.078545 172.078545 0 0 0-106.100364 38.865454l-14.429091 11.869091 66.443637 175.313455a57.530182 57.530182 0 0 0 53.597091 36.887272v62.277818a120.436364 120.436364 0 0 1-112.151273-77.195636l-58.88-155.392-49.221818 40.401455c-2.234182 1.931636-5.888 5.096727-10.775273 9.216z m-103.191272-411.368728v-49.547636h62.580363v49.570909h203.031273c48.826182 0 88.529455 39.517091 88.529454 88.087273v86.062545h-62.55709v-86.062545c0-14.242909-11.682909-25.832727-25.972364-25.832727H2023.726545v111.639272H1961.192727V314.414545a31.185455 31.185455 0 0 1 31.278546-31.138909h260.305454zM1469.556364 701.160727V650.705455h-0.605091c-51.898182 0-94.091636-42.007273-94.091637-93.649455v-101.329455h-42.053818v101.329455c0 51.642182-42.216727 93.649455-94.114909 93.649455h-3.863273v50.432h234.728728z m0 62.254546H1234.850909v26.088727c0 14.266182 11.636364 25.832727 25.972364 25.832727h208.756363v-51.921454zM1270.225455 328.029091h-96.93091V265.774545H1531.112727v62.254546h-93.672727v65.466182h6.167273c48.826182 0 88.552727 39.517091 88.552727 88.087272v357.655273c0 21.178182-17.291636 38.4-38.586182 38.4H1260.8c-48.826182 0-88.552727-39.563636-88.552727-88.133818V431.872c0-21.178182 17.314909-38.4 38.586182-38.4h59.392v-65.442909z m62.580363 0v65.466182h42.053818v-65.466182h-42.053818z m-62.603636 127.720727h-35.374546v132.701091h3.863273c17.384727 0 31.534545-14.08 31.534546-31.371636v-101.329455z m167.214545 0v101.329455c0 17.291636 14.149818 31.371636 31.534546 31.371636h0.605091v-106.868364c0-14.219636-11.636364-25.832727-25.972364-25.832727h-6.167273z m260.561455-71.237818h-67.514182a67.677091 67.677091 0 0 1-67.770182-67.444364v-50.781091h62.557091v50.781091c0 2.839273 2.327273 5.166545 5.213091 5.166546h67.514182v-73.774546h62.580363v73.774546h119.063273v62.277818H1760.581818v105.634909h119.063273v62.254546h-315.810909v-62.254546h134.167273v-105.658182zM460.288 4.002909c8.773818-5.352727 19.781818-5.352727 28.555636 0L936.238545 276.247273c8.145455 4.933818 13.079273 13.730909 13.079273 23.202909v242.385454c0 258.327273-206.429091 474.554182-460.194909 482.048a192.349091 192.349091 0 0 1-6.446545 0.093091h-16.034909c-2.141091 0-4.258909 0-6.446546-0.093091C206.452364 1016.413091 0 800.162909 0 541.858909V299.473455c0-9.472 4.957091-18.269091 13.079273-23.20291L460.288 4.002909z m14.382545 902.632727c5.678545 0 9.728 0 13.847273-0.162909 189.021091-7.121455 342.807273-170.077091 342.807273-363.264v-181.224727a19.502545 19.502545 0 0 0-9.402182-16.663273L485.818182 140.706909a19.735273 19.735273 0 0 0-20.526546 0L127.394909 346.344727a19.549091 19.549091 0 0 0-9.402182 16.686546v180.177454c0 193.163636 153.786182 356.142545 342.807273 363.264 4.096 0.162909 8.168727 0.162909 12.241455 0.162909h1.62909z m0.116364-159.883636c-99.933091 0-186.461091-70.702545-205.730909-168.145455a58.018909 58.018909 0 0 1 45.917091-68.119272 58.251636 58.251636 0 0 1 68.445091 45.707636c8.564364 43.217455 46.987636 74.565818 91.368727 74.565818 44.032 0 82.385455-31.069091 91.205818-73.890909a58.274909 58.274909 0 0 1 68.770909-45.218909 57.995636 57.995636 0 0 1 45.428364 68.468364c-19.851636 96.558545-106.24 166.632727-205.405091 166.632727z m1367.342546 130.862545h-190.37091c-48.849455 0-88.576-39.517091-88.576-88.110545v-162.676364c0-21.178182 17.314909-38.376727 38.586182-38.376727h190.370909c48.849455 0 88.552727 39.540364 88.552728 88.110546v162.676363c0 21.178182-17.291636 38.4-38.562909 38.4z m894.370909-4.049454l-44.450909-43.822546 22.202181 21.92291-22.458181-21.690182c2.094545-2.187636 51.223273-55.016727 51.2-174.778182h62.580363c0.046545 147.246545-66.257455 215.528727-69.096727 218.368z m581.957818 4.352l-60.648727-15.36 30.324363 7.68-30.394182-7.354182c0.698182-2.955636 16.151273-73.262545-44.916363-176.477091l53.969454-31.581091c75.031273 126.929455 52.642909 219.229091 51.665455 223.092364z m-1692.695273-227.188364v138.775273c0 14.266182 11.636364 25.832727 25.972364 25.832727h166.4v-138.775272c0-14.242909-11.636364-25.832727-25.972364-25.832728h-166.4z" p-id="14240" fill="#ffffff"></path></svg>